<svg width="89" height="89" viewBox="0 0 89 89" fill="none" xmlns="http://www.w3.org/2000/svg">
<path d="M16.4151 75.6528L10.1685 5.5625H78.832L72.5769 75.6417L44.4585 83.4375L16.4151 75.6528Z" fill="#1572B6"/>
<path d="M44.5 77.4803L67.2228 71.1808L72.5684 11.2949H44.5V77.4803Z" fill="#33A9DC"/>
<path d="M44.5 36.6866H55.8753L56.6596 27.884H44.5V19.2871H66.0547L65.8489 21.5928L63.7379 45.2835H44.5V36.6866V36.6866Z" fill="white"/>
<path d="M44.5528 59.0133L44.5139 59.0244L34.9408 56.4378L34.329 49.582H25.6987L26.903 63.0794L44.5111 67.9689L44.5528 67.9578V59.0133V59.0133Z" fill="#EBEBEB"/>
<path d="M55.1441 44.9199L54.1094 56.4315L44.5225 59.0181V67.9626L62.1445 63.0787L62.2752 61.6269L63.7687 44.9199H55.1441V44.9199Z" fill="white"/>
<path d="M44.5308 19.2871V27.884H23.766L23.5936 25.951L23.2014 21.5928L22.9956 19.2871H44.5308V19.2871ZM44.5002 36.6866V45.2835H35.0468L34.8743 43.3505L34.485 38.9923L34.2791 36.6866H44.5002V36.6866Z" fill="#EBEBEB"/>
</svg>
