<svg width="89" height="89" viewBox="0 0 89 89" fill="none" xmlns="http://www.w3.org/2000/svg">
<path d="M16.415 75.6528L10.1655 5.5625H78.8346L72.5768 75.6417L44.4583 83.4375L16.415 75.6528Z" fill="#E44F26"/>
<path d="M44.5 77.4803L67.2228 71.1808L72.5684 11.2949H44.5V77.4803Z" fill="#F1662A"/>
<path d="M44.5 37.2882H33.1247L32.3404 28.4855H44.5V19.8887H22.9453L23.1511 22.1971L25.2621 45.885H44.5V37.2882V37.2882ZM44.5 59.6133L44.4611 59.6244L34.888 57.0406L34.2761 50.1848H25.6459L26.8502 63.6795L44.4611 68.5689L44.5 68.5578V59.6133Z" fill="#EBEBEB"/>
<path d="M44.4692 37.2882V45.885H55.0547L54.059 57.035L44.4692 59.6216V68.5661L62.094 63.6795L62.222 62.2276L64.2411 39.5966L64.4525 37.2882H44.4692V37.2882ZM44.4692 19.8887V28.4855H65.234L65.4065 26.5553L65.7986 22.1971L66.0045 19.8887H44.4692V19.8887Z" fill="white"/>
</svg>
