<svg width="89" height="89" viewBox="0 0 89 89" fill="none" xmlns="http://www.w3.org/2000/svg">
<path d="M5.5625 5.5625H83.4375V83.4375H5.5625V5.5625Z" fill="#F5DE19"/>
<path d="M57.8751 66.4024C58.5386 67.7502 59.5695 68.8831 60.8489 69.6704C62.1283 70.4577 63.6041 70.8675 65.1063 70.8524C68.1379 70.8524 70.0764 69.3366 70.0764 67.2368C70.0764 64.7337 68.085 63.8381 64.7475 62.378L62.9175 61.5936C57.6331 59.3436 54.1287 56.5262 54.1287 50.5688C54.1287 45.0814 58.3006 40.9011 64.8449 40.9011C66.9634 40.7482 69.08 41.2223 70.9308 42.2644C72.7816 43.3065 74.2846 44.8705 75.2523 46.7612L69.5313 50.4186C69.1587 49.4811 68.5098 48.679 67.6709 48.1187C66.8319 47.5584 65.8425 47.2664 64.8338 47.2813C64.3937 47.2373 63.9492 47.2854 63.5287 47.4226C63.1082 47.5598 62.7209 47.7831 62.3915 48.0782C62.0621 48.3734 61.7978 48.7339 61.6154 49.1368C61.433 49.5398 61.3365 49.9763 61.3322 50.4186C61.3322 52.613 62.6922 53.503 65.8322 54.8686L67.6623 55.6529C73.8812 58.3201 77.3967 61.0374 77.3967 67.1478C77.3967 73.7366 72.2208 77.3466 65.2704 77.3466C62.5623 77.5192 59.8622 76.9043 57.4958 75.5763C55.1294 74.2483 53.1979 72.2638 51.9343 69.8623L57.8751 66.4024ZM32.0234 67.0366C33.172 69.0752 34.2178 70.7996 36.732 70.7996C39.135 70.7996 40.6536 69.8595 40.6536 66.2022V41.3183H47.971V66.2995C47.971 73.8756 43.521 77.3244 37.0435 77.3244C34.7539 77.4495 32.4799 76.8789 30.5206 75.6876C28.5613 74.4962 27.0084 72.7399 26.0659 70.6494L32.0234 67.0366Z" fill="black"/>
</svg>
