<svg width="89" height="68" viewBox="0 0 89 68" fill="none" xmlns="http://www.w3.org/2000/svg">
<g clip-path="url(#clip0_268230_159)">
<path d="M48.8511 66.5183L73.2764 51.0726C73.3668 51.017 73.485 51.0413 73.5406 51.1317C73.5962 51.2221 73.5719 51.3403 73.4815 51.3959L48.9762 66.8903C48.9449 66.9111 48.9102 66.9216 48.8754 66.9216L48.8511 66.5183V66.5183Z" fill="url(#paint0_linear_268230_159)"/>
<path d="M48.8752 66.9214C48.8544 66.9214 48.8301 66.9179 48.8092 66.911L15.5082 54.5C15.4845 54.4914 15.4627 54.4781 15.4442 54.461C15.4257 54.4438 15.4108 54.4231 15.4005 54.4001C15.3901 54.3771 15.3844 54.3522 15.3838 54.327C15.3832 54.3018 15.3877 54.2767 15.397 54.2532C15.4352 54.1524 15.543 54.1037 15.6438 54.1419L48.8579 66.5181L48.8752 66.9214V66.9214Z" fill="url(#paint1_linear_268230_159)"/>
<path d="M83.8202 7.58142L79.9754 13.9467L64.5298 20.5139L63.671 20.8789L49.7895 33.8597C49.5218 34.1274 49.341 34.5098 49.3097 34.7219C49.2958 34.7949 49.2332 34.7636 49.1741 34.7601C49.1115 34.7567 49.0246 34.781 49.0177 34.7045C49.0107 34.4264 48.9794 34.117 48.531 33.8389L41.5747 29.3332L36.5024 26.0444L22.2148 22.3805L10.2554 19.3141L2.68066 7.54666L2.79539 7.41455L2.80234 7.40412L31.2396 0.0129469C31.2813 -0.000959305 31.2883 0.00599382 31.3056 0.0303298L41.0046 14.5585L41.1958 14.8436C41.4044 15.1496 41.4252 15.3373 41.4252 15.4729H41.6025V15.4416C41.6025 15.4277 41.6025 15.4103 41.606 15.3929C41.606 15.3825 41.6095 15.3721 41.6095 15.3581C41.6129 15.3442 41.613 15.3303 41.6164 15.3164C41.6199 15.3025 41.6199 15.2886 41.6234 15.2712C41.6338 15.2226 41.6477 15.1669 41.6616 15.1113C41.6651 15.0939 41.6721 15.0765 41.6755 15.0626C41.6929 15.007 41.7103 14.9479 41.7312 14.8923C41.7416 14.8714 41.7485 14.8471 41.759 14.8262C41.7868 14.7567 41.8146 14.6941 41.8459 14.6385C41.8737 14.5829 41.9015 14.5377 41.9293 14.4994L50.6729 1.78252C50.6937 1.75123 50.7042 1.73732 50.7494 1.74428L83.7649 7.42498L83.8205 7.58142H83.8202Z" fill="#E8B67F"/>
<path d="M41.5743 29.3307H41.5708L36.5023 26.0457L22.2144 22.3814L41.4248 15.4739L41.4769 15.373V15.4739L41.5743 29.3307Z" fill="url(#paint2_linear_268230_159)"/>
<path d="M41.4252 15.474L22.2148 22.3781L20.4834 21.9331L10.2554 19.3083L2.68066 7.5408L2.80234 7.39826L31.2396 0.00708757C31.2813 -0.00681868 31.2883 0.000134446 31.3056 0.0244704L41.0045 14.5527L41.1958 14.8378C41.4044 15.1506 41.4252 15.3384 41.4252 15.474V15.474Z" fill="url(#paint3_linear_268230_159)"/>
<path d="M41.4929 16.208L23.3285 22.7367L20.4951 22.0101L41.0166 14.6328L41.2078 14.9179C41.4164 15.2238 41.4372 15.4116 41.4372 15.5471H41.4894L41.4929 16.2077V16.208Z" fill="url(#paint4_linear_268230_159)"/>
<path d="M10.5164 19.3777L10.2592 19.3117L2.68408 7.54422L2.79881 7.41211L10.5164 19.3777Z" fill="#D2A679"/>
<path d="M64.5294 20.515L63.6707 20.88L49.7891 33.8611C49.5214 34.1288 49.3406 34.5113 49.3093 34.7233C49.2954 34.7963 49.2329 34.765 49.1738 34.7616C49.1112 34.7581 49.0243 34.7824 49.0173 34.7059C49.0104 34.4278 48.9791 34.1184 48.5306 33.8403L41.5743 29.3312L41.4805 15.4778V15.377L41.6091 15.4778L64.5294 20.5153V20.515Z" fill="url(#paint5_linear_268230_159)"/>
<path d="M83.8197 7.58261L79.975 13.9479L65.9165 19.9241L64.5328 20.5116L41.6056 15.4741C41.5917 15.2968 41.7134 14.8935 41.8455 14.6362C41.8733 14.5806 41.9011 14.5354 41.9289 14.4972L50.6725 1.78023C50.6933 1.74894 50.7037 1.73504 50.7489 1.74199L83.7645 7.42269L83.8201 7.58261H83.8197Z" fill="url(#paint6_linear_268230_159)"/>
<path d="M65.9166 19.9241L63.6742 20.8767L63.3857 21.1548L41.4771 16.312L41.5779 15.4707H41.6057C41.5918 15.2934 41.7135 14.8901 41.8456 14.6328L65.9166 19.9241V19.9241Z" fill="url(#paint7_linear_268230_159)"/>
<path opacity="0.75" d="M42.0854 15.5789V29.6618L41.5744 29.3315H41.5709L40.8999 28.8934V15.6623L41.4249 15.4746H41.6022L42.0854 15.5789Z" fill="url(#paint8_linear_268230_159)"/>
<path d="M48.7397 66.6957L15.4109 54.2604C15.2232 54.1805 15.1954 54.0031 15.1849 53.7841C15.1849 53.7841 13.7526 25.382 13.7491 25.3785C13.7456 25.3055 13.836 25.2603 13.8291 25.2151C13.8047 25.1074 13.5996 24.7006 13.5336 24.6589L0 16.9687L0.114727 16.708L36.5025 26.046L48.5276 33.8367C48.9761 34.1148 49.0108 34.4242 49.0143 34.7023C49.0178 34.7788 49.1082 34.7545 49.1708 34.7579C49.2333 34.7614 49.2924 34.7927 49.3063 34.7197C49.3376 34.5076 49.5184 34.1252 49.7861 33.861L63.6673 20.8799L88.8401 10.1797L88.993 10.3918L75.4039 22.3334C75.1396 22.5976 75.018 22.9209 75.0701 23.0531L73.6795 50.8888C73.6586 51.0662 73.5752 51.1183 73.3979 51.24L49.0352 66.6613C48.9378 66.7239 48.8335 66.7413 48.7397 66.6961V66.6957Z" fill="#BF9064"/>
<path d="M49.1704 34.7579L48.9305 66.7095C48.866 66.7277 48.7971 66.7228 48.7358 66.6956L15.4074 54.2638C15.2197 54.1838 15.1919 54.0031 15.1814 53.7875L13.7456 25.3819V25.375C13.7456 25.368 13.7456 25.3611 13.7491 25.3541C13.7491 25.3471 13.7526 25.3437 13.756 25.3402C13.7595 25.3332 13.763 25.3298 13.7665 25.3228C13.7699 25.3159 13.7734 25.3124 13.7769 25.3054C13.7908 25.2846 13.8117 25.2637 13.8186 25.2463C13.8221 25.2428 13.8221 25.2394 13.8221 25.2359V25.2324L49.0178 34.7161C49.0317 34.7787 49.1151 34.7544 49.1707 34.7579H49.1704Z" fill="#BD8F63"/>
<path opacity="0.54" d="M48.9342 66.6157V66.7061C48.8697 66.7242 48.8008 66.7193 48.7395 66.6922L15.4107 54.2604C15.2786 54.2047 15.2265 54.097 15.2021 53.9648L48.9342 66.6157V66.6157Z" fill="url(#paint9_linear_268230_159)"/>
<path d="M33.8638 47.2344L46.7684 51.4549L46.7371 64.0394L34.0724 59.3877L33.8638 47.2344ZM40.3302 55.6894L40.3615 61.5192L46.6116 63.8151V57.8723L40.3298 55.689L40.3302 55.6894ZM42.1766 57.5726L43.4396 59.5828L44.6769 58.4988L44.8925 58.7446L43.6155 59.863L44.8952 61.8996L44.71 62.016L43.4487 60.009L42.2176 61.0881L42.0021 60.8423L43.2727 59.7288L41.9913 57.6891L42.1766 57.5726V57.5726ZM45.8958 59.8366V60.4102L46.2261 60.518V61.1646L45.8958 61.0325V61.554L45.1727 60.4554L45.8958 59.8366V59.8366ZM44.7833 59.1378L45.0371 59.2177V61.5088L44.7833 61.4184V59.1378ZM34.1176 53.5301L34.2114 59.2699L40.1842 61.4532L40.1494 55.6369L34.1176 53.5301ZM43.4556 60.372L44.1092 61.4254L42.8055 60.9525L43.4556 60.372ZM44.4635 59.4055V60.9004L43.7855 59.9443L44.4635 59.4055ZM41.8769 58.0739L42.1272 58.1574V60.445L41.8769 60.358V58.0739V58.0739ZM42.4401 58.6893L43.0867 59.6871L42.4401 60.1842V58.6893ZM37.0375 55.9185L37.2844 55.9984L37.2851 56.1452C38.02 56.4407 38.7459 57.1777 39.096 58.3243C38.8665 57.9384 38.6649 57.8654 38.3068 57.987C38.1747 57.7124 37.7853 57.5664 37.5524 57.7124C37.4934 57.5996 37.4034 57.506 37.2931 57.4426L37.3056 59.6245C37.3056 59.8261 37.1665 60.0069 36.8223 59.9374C36.5094 59.8609 36.3808 59.621 36.4156 59.2108L36.5894 59.2386C36.5894 59.5132 36.6103 59.6697 36.8188 59.7184C36.9962 59.7601 37.0761 59.694 37.0761 59.5306L37.0532 57.3665C36.9544 57.3595 36.863 57.3838 36.798 57.4412C36.718 57.2396 36.3391 56.9684 36.054 57.17C35.8524 56.8502 35.4734 56.7285 35.2613 56.9614C35.5322 56.1427 36.2675 55.8559 37.0389 56.0628L37.0379 55.9185H37.0375ZM40.9939 58.0496L41.6996 59.1621L41.0008 59.7427L41.0147 59.1969L40.674 59.1169V58.4842L40.9939 58.6024V58.0496ZM42.7843 58.2895L44.1054 58.7693L43.4448 59.3498L42.7843 58.2895V58.2895ZM40.3194 49.5286L40.3333 55.4735L46.6155 57.6637V51.5902L40.3194 49.5286V49.5286ZM41.491 54.6634L45.2457 55.9463V56.6938L41.491 55.4005V54.6634V54.6634ZM38.2446 56.078L38.2581 56.0819C38.2825 56.1062 38.2825 56.367 38.2025 56.4261C38.1789 56.4367 38.1528 56.4407 38.1271 56.4376C38.1014 56.4346 38.077 56.4246 38.0565 56.4087C38.0078 56.3704 37.98 56.3148 38.0009 56.2314C38.0217 56.1479 38.2303 56.0575 38.2581 56.0819L38.2446 56.078ZM38.5922 55.4836L38.6058 55.4874C38.6336 55.5117 38.6336 55.7725 38.5502 55.8316C38.5266 55.8422 38.5005 55.8462 38.4748 55.8432C38.449 55.8401 38.4246 55.8301 38.4042 55.8142C38.3555 55.7759 38.3277 55.7203 38.3485 55.6369C38.3694 55.5534 38.578 55.463 38.6058 55.4874L38.5922 55.4836ZM37.6188 55.4592L37.6324 55.463C37.6602 55.4874 37.6602 55.7481 37.5767 55.8072C37.5531 55.8179 37.527 55.8219 37.5013 55.8188C37.4756 55.8158 37.4512 55.8057 37.4307 55.7898C37.3821 55.7516 37.3542 55.696 37.3751 55.6125C37.396 55.5291 37.6046 55.4387 37.6324 55.463L37.6188 55.4592ZM36.6349 55.3167L36.6485 55.3205C36.6763 55.3448 36.6763 55.6056 36.5929 55.6647C36.5693 55.6753 36.5432 55.6793 36.5174 55.6763C36.4917 55.6732 36.4673 55.6632 36.4469 55.6473C36.3982 55.6091 36.3704 55.5534 36.3912 55.47C36.4121 55.3866 36.6207 55.2962 36.6485 55.3205L36.6349 55.3167ZM44.3905 51.4132L45.3013 53.2106L44.679 52.9985V55.6025L44.0567 55.3869L44.0602 52.8038L43.4414 52.6022L44.3905 51.4132V51.4132ZM33.9994 47.4569L34.1071 53.3218L40.1529 55.4008L40.1007 49.4594L33.9994 47.4569ZM42.3362 50.7283L43.247 52.5257L42.6247 52.3136V54.9176L42.0024 54.702L42.0094 52.1189L41.3871 51.9173L42.3362 50.7283V50.7283ZM35.3517 48.6354L35.8454 48.7988L36.0749 49.6297L35.8176 49.6123L36.5512 51.3854L36.1722 49.9252L36.3878 49.9218L36.1687 48.9031L38.7171 49.7445V51.1455C38.7171 51.6774 38.1399 52.3484 37.3264 52.0146L37.3299 53.4227L38.498 54.1736L35.6716 53.1932L36.8084 53.2488L36.7876 51.8547C35.981 51.6148 35.3969 50.6449 35.3969 50.0539L35.3517 48.6354V48.6354Z" fill="#322214"/>
<path d="M49.1704 34.7583C49.0314 34.7617 48.9271 34.946 48.9236 35.1129L48.8923 35.1268L13.7456 25.3785C13.7422 25.3124 13.8186 25.2707 13.8256 25.229C13.8291 25.2255 13.8291 25.222 13.8256 25.2186C13.8013 25.1108 13.5961 24.704 13.5301 24.6623L0 16.9697L0.114727 16.709L36.499 26.0432H36.5025L48.5276 33.8338C48.9761 34.1154 49.0108 34.4214 49.0143 34.6995C49.0143 34.703 49.0143 34.7099 49.0178 34.7134C49.0317 34.7795 49.1151 34.7551 49.1708 34.7586L49.1704 34.7583Z" fill="url(#paint10_linear_268230_159)"/>
<path d="M75.4074 22.3291C75.1432 22.5934 75.0215 22.9167 75.0737 23.0488L49.4764 35.1608L49.4243 35.1191C49.4208 34.9174 49.2922 34.7818 49.1948 34.761C49.247 34.7679 49.2956 34.7853 49.3096 34.7193C49.3165 34.6776 49.3269 34.6289 49.3443 34.5767C49.3582 34.5315 49.3791 34.4829 49.4034 34.4307C49.4764 34.2638 49.5877 34.0831 49.7302 33.9231C49.7511 33.9023 49.7719 33.8779 49.7928 33.8571L63.6744 20.8759L88.8471 10.1758L89.0001 10.3879L75.4074 22.3295V22.3291Z" fill="#CD9C6B"/>
<path d="M33.3738 37.9413C33.412 37.9517 33.4259 37.9552 33.4259 37.9239L33.2938 30.8529C33.2834 30.6131 33.2243 30.1402 32.9357 29.949L20.1183 22.1619L14.1108 20.6113L27.1372 28.3954C27.464 28.6109 27.4918 29.0142 27.5057 29.3132L27.6934 36.1891C27.6934 36.2239 27.7004 36.2308 27.7247 36.2413L33.3741 37.9413H33.3738Z" fill="url(#paint11_linear_268230_159)"/>
<path d="M49.1704 34.7568C49.0279 34.7602 48.9236 34.9549 48.9236 35.1253C48.9201 35.1392 48.8958 35.1357 48.8923 35.1253C48.8645 34.7463 48.7081 34.3222 48.5029 34.1727L36.3809 26.3574L36.4991 26.041H36.5025L48.5276 33.832C48.9761 34.1136 49.0109 34.4195 49.0143 34.6977C49.0143 34.7011 49.0143 34.7081 49.0178 34.7116C49.0317 34.7776 49.1152 34.7533 49.1708 34.7568H49.1704Z" fill="#D4A271"/>
<path d="M36.499 26.0452L36.3808 26.3581L0 16.9682L0.114727 16.7109L36.499 26.0452Z" fill="#DEB37E"/>
<path d="M75.0773 23.0492L73.6866 50.885C73.6658 51.0623 73.5824 51.1145 73.405 51.2361L49.0423 66.6575C49.0076 66.6818 48.9693 66.6957 48.9346 66.7061L49.1745 34.7545C49.237 34.7579 49.2961 34.7892 49.31 34.7162C49.31 34.7058 49.3135 34.6988 49.3135 34.6884L75.0703 23.0176C75.0703 23.035 75.0738 23.0419 75.0773 23.0489V23.0492Z" fill="#DBAD77"/>
<path opacity="0.54" d="M73.6866 50.875V50.8889C73.6658 51.0662 73.5824 51.1184 73.405 51.24L49.0423 66.6614C49.0076 66.6857 48.9693 66.6996 48.9346 66.71V66.6197L73.6866 50.875V50.875Z" fill="url(#paint12_linear_268230_159)"/>
<path d="M73.2309 38.7617L72.6746 50.095L64.5742 55.1395L64.9914 43.3435L73.2309 38.7617V38.7617ZM68.8991 46.9664L64.8732 49.3336L64.682 54.9135L68.6905 52.4208L68.8991 46.9661V46.9664ZM66.9765 49.3614L66.9696 49.5491C67.4504 49.3093 67.9048 49.4761 68.096 50.2723C67.9639 50.088 67.724 50.161 67.5641 50.5365C67.4911 50.38 67.1191 50.5087 67.0634 50.8355C67.0339 50.7823 66.9807 50.7628 66.9195 50.7698L66.8309 52.9214C66.8239 53.1057 66.8135 53.3038 66.5805 53.4464C66.4728 53.495 66.1877 53.5333 66.2259 53.1335L66.3615 53.0292C66.3511 53.283 66.4171 53.3595 66.5562 53.276C66.7231 53.1752 66.6918 53.0153 66.6987 52.8658L66.7735 50.8271C66.7197 50.8625 66.6734 50.9082 66.6373 50.9615C66.6012 51.0148 66.576 51.0748 66.5632 51.1379C66.5214 51.0128 66.1182 51.0893 66.0695 51.4473C65.9548 51.2944 65.6419 51.4439 65.5237 51.8298C65.7413 50.8275 66.2809 49.9955 66.818 49.6374L66.8239 49.4727L66.9769 49.3614H66.9765ZM72.8519 44.6298L69.0138 46.9L68.8017 52.3686L72.5981 49.9802L72.8519 44.6298V44.6298ZM71.6664 46.4724L71.7777 46.5767L70.9412 48.4742L71.6316 49.4275L71.5204 49.6639L70.832 48.7217L70.0046 50.5991L69.8899 50.4948L70.7326 48.5858L70.0185 47.6092L70.1437 47.3728L70.8425 48.3376L71.6664 46.4724ZM69.3302 48.6522L69.7647 49.1806L69.3023 50.1749V49.7369L69.1077 49.8551L69.1181 49.2884L69.3128 49.1737L69.3302 48.6522V48.6522ZM70.0811 47.9638L69.9907 50.0602L69.8343 50.1645L69.9212 48.0751L70.0811 47.9638V47.9638ZM70.8146 49.0589L71.1866 49.5491L70.387 50.0359L70.8146 49.0589V49.0589ZM66.5559 49.2119C66.5732 49.2119 66.5628 49.4518 66.5037 49.57C66.4829 49.6117 66.4446 49.6569 66.4133 49.6604C66.382 49.6639 66.3681 49.6291 66.3855 49.5387C66.4029 49.4483 66.5385 49.2119 66.5559 49.2119ZM70.2549 48.2489L70.6234 48.7043L70.1923 49.5561L70.2549 48.2489ZM67.6127 48.7773C67.6266 48.7808 67.6162 49.0207 67.5606 49.1354C67.5397 49.1772 67.5015 49.2223 67.4702 49.2258C67.4389 49.2293 67.425 49.1945 67.4424 49.1041C67.4598 49.0138 67.5953 48.7773 67.6127 48.7773ZM69.1563 41.1845L65.0887 43.4652L64.8767 49.1563L68.913 46.7783L69.1563 41.1845V41.1845ZM71.8368 46.8965L71.7394 48.9894L71.6003 49.0798L71.6942 46.9904L71.8368 46.8965ZM67.2303 48.6209C67.2477 48.6209 67.2373 48.8608 67.1782 48.979C67.1573 49.0207 67.1191 49.0659 67.0878 49.0694C67.0565 49.0729 67.0426 49.0381 67.06 48.9477C67.0773 48.8573 67.2129 48.6209 67.2303 48.6209ZM71.4787 47.5049L71.423 48.8399L71.0615 48.4088L71.4787 47.5049ZM72.3409 46.8687L72.32 47.3832L72.5216 47.272L72.4973 47.8422L72.3026 47.9569L72.2957 48.4262L71.875 47.9221L72.3409 46.8687ZM67.8804 47.9325C67.8978 47.9325 67.8874 48.1724 67.8283 48.2906C67.8074 48.3323 67.7692 48.3775 67.7379 48.381C67.7066 48.3845 67.6927 48.3497 67.7101 48.2593C67.7275 48.1689 67.863 47.9325 67.8804 47.9325ZM71.2805 47.126L70.8494 48.1133L70.4774 47.6092L71.2805 47.126V47.126ZM68.2107 42.3944L68.1586 43.8267C68.1377 44.3134 67.7483 45.1965 67.1677 45.565L67.1052 46.9174L67.8804 46.7505L65.9927 47.8422L66.7784 47.0947L66.8201 45.7666C66.316 46.0552 65.9127 45.5198 65.937 44.9775L65.9822 43.6633L66.3229 43.4791L66.4342 44.1118L66.2499 44.2613L66.6567 45.4398L66.5002 44.3656L66.6393 44.2057L66.5315 43.3609L68.2107 42.3944V42.3944ZM73.1474 38.9668L69.2537 41.1432L69.0103 46.737L72.8693 44.4285L73.1474 38.9668V38.9668ZM72.1323 43.7888L72.0836 44.4528L69.803 45.8018L69.8343 45.1308L72.1323 43.7888V43.7888ZM70.5191 40.9207L71.0232 41.9845L70.6443 42.1966L70.5296 44.585L70.168 44.7936L70.2375 42.4052L69.8725 42.6242L70.5191 40.9207V40.9207ZM71.7846 40.2184L72.2748 41.2648L71.8715 41.4908L71.7881 43.8618L71.4022 44.0774L71.5239 41.689L71.1449 41.9045L71.7846 40.2184V40.2184Z" fill="#322214"/>
<path d="M63.8761 21.1501L50.1127 33.9435C49.7233 34.3155 49.4661 34.8717 49.4765 35.1603C49.4695 35.1742 49.4348 35.1846 49.4209 35.1603C49.4382 34.9378 49.2957 34.7848 49.1914 34.7605C49.2436 34.7674 49.2922 34.7848 49.3061 34.7188C49.3131 34.677 49.3235 34.6284 49.3409 34.5762C49.3548 34.531 49.3757 34.4823 49.4 34.4302C49.4834 34.2425 49.619 34.0269 49.7859 33.86L63.6675 20.8789L63.8761 21.1501V21.1501Z" fill="#D7AA77"/>
<path d="M60.8407 36.6698C60.8407 36.708 60.8581 36.7254 60.8824 36.715L65.016 34.5943C65.023 34.5908 65.0265 34.5838 65.0299 34.5699L65.2594 27.7945C65.2663 27.4225 65.4749 27.054 65.76 26.8002L79.4879 14.4629L75.3091 16.2533L61.5113 28.7543C61.1567 29.102 61.035 29.5122 61.0281 29.8599L60.8403 36.6705L60.8407 36.6698Z" fill="url(#paint13_linear_268230_159)"/>
<path d="M63.876 21.1514L88.9966 10.3883L88.8436 10.1797L63.6709 20.8767L63.876 21.1514Z" fill="#F8CE93"/>
</g>
<defs>
<linearGradient id="paint0_linear_268230_159" x1="61.0586" y1="58.9033" x2="61.188" y2="59.1076" gradientUnits="userSpaceOnUse">
<stop/>
<stop offset="1" stop-opacity="0"/>
</linearGradient>
<linearGradient id="paint1_linear_268230_159" x1="32.1788" y1="60.5168" x2="32.162" y2="60.5621" gradientUnits="userSpaceOnUse">
<stop/>
<stop offset="1" stop-opacity="0"/>
</linearGradient>
<linearGradient id="paint2_linear_268230_159" x1="37.9933" y1="21.8699" x2="40.1945" y2="22.7823" gradientUnits="userSpaceOnUse">
<stop stop-color="#C37A44"/>
<stop offset="0.4442" stop-color="#BB713D"/>
<stop offset="0.6406" stop-color="#A05728"/>
<stop offset="1" stop-color="#964E23"/>
</linearGradient>
<linearGradient id="paint3_linear_268230_159" x1="27.2738" y1="13.7222" x2="22.499" y2="7.02024" gradientUnits="userSpaceOnUse">
<stop stop-color="#E9B880"/>
<stop offset="1" stop-color="#E4AF76"/>
</linearGradient>
<linearGradient id="paint4_linear_268230_159" x1="31.1817" y1="18.7753" x2="31.0914" y2="18.5265" gradientUnits="userSpaceOnUse">
<stop stop-color="#C37A45" stop-opacity="0"/>
<stop offset="0.1334" stop-color="#C37A45"/>
<stop offset="0.2945" stop-color="#D08D55"/>
<stop offset="0.5021" stop-color="#DEA167"/>
<stop offset="0.6966" stop-color="#E8AF73"/>
<stop offset="0.8631" stop-color="#ECB477"/>
<stop offset="1" stop-color="#ECB477" stop-opacity="0"/>
</linearGradient>
<linearGradient id="paint5_linear_268230_159" x1="52.411" y1="20.9891" x2="48.0446" y2="31.0243" gradientUnits="userSpaceOnUse">
<stop offset="0.0881" stop-color="#AF6938"/>
<stop offset="0.4829" stop-color="#9A5227"/>
<stop offset="0.7792" stop-color="#8D4520"/>
</linearGradient>
<linearGradient id="paint6_linear_268230_159" x1="58.9749" y1="12.494" x2="61.4978" y2="7.95783" gradientUnits="userSpaceOnUse">
<stop offset="0.0327" stop-color="#E4AF76"/>
<stop offset="1" stop-color="#E9B880"/>
</linearGradient>
<linearGradient id="paint7_linear_268230_159" x1="53.6049" y1="17.9245" x2="53.6348" y2="17.7919" gradientUnits="userSpaceOnUse">
<stop stop-color="#AF6A38" stop-opacity="0"/>
<stop offset="0.086" stop-color="#AF6A38"/>
<stop offset="0.1977" stop-color="#B87542"/>
<stop offset="0.5828" stop-color="#D59C66"/>
<stop offset="0.7771" stop-color="#E4AF76"/>
<stop offset="0.9239" stop-color="#E4AF76" stop-opacity="0"/>
</linearGradient>
<linearGradient id="paint8_linear_268230_159" x1="40.9972" y1="22.569" x2="42.0053" y2="22.569" gradientUnits="userSpaceOnUse">
<stop stop-color="#743F1A" stop-opacity="0"/>
<stop offset="0.4929" stop-color="#743F1A" stop-opacity="0.887"/>
<stop offset="0.5" stop-color="#743F1A" stop-opacity="0.9"/>
<stop offset="0.5297" stop-color="#743F1A" stop-opacity="0.847"/>
<stop offset="1" stop-color="#743F1A" stop-opacity="0"/>
</linearGradient>
<linearGradient id="paint9_linear_268230_159" x1="32.0348" y1="60.3524" x2="32.043" y2="60.3308" gradientUnits="userSpaceOnUse">
<stop stop-color="#322214"/>
<stop offset="0.2397" stop-color="#322314" stop-opacity="0.989"/>
<stop offset="1" stop-color="#322214" stop-opacity="0"/>
</linearGradient>
<linearGradient id="paint10_linear_268230_159" x1="25.2639" y1="25.593" x2="24.9871" y2="26.5166" gradientUnits="userSpaceOnUse">
<stop offset="0.0476" stop-color="#C69866"/>
<stop offset="0.4156" stop-color="#BA8C5E"/>
<stop offset="0.8135" stop-color="#B5875B"/>
</linearGradient>
<linearGradient id="paint11_linear_268230_159" x1="26.2869" y1="28.7328" x2="19.7253" y2="21.4454" gradientUnits="userSpaceOnUse">
<stop stop-color="#845F35"/>
<stop offset="0.4311" stop-color="#91673C"/>
<stop offset="0.4407" stop-color="#976A40"/>
<stop offset="0.8737" stop-color="#986B40"/>
<stop offset="1" stop-color="#AB8157"/>
</linearGradient>
<linearGradient id="paint12_linear_268230_159" x1="61.3104" y1="58.7932" x2="61.326" y2="58.8178" gradientUnits="userSpaceOnUse">
<stop stop-color="#322214" stop-opacity="0"/>
<stop offset="1" stop-color="#322214"/>
</linearGradient>
<linearGradient id="paint13_linear_268230_159" x1="69.3541" y1="28.3997" x2="70.6197" y2="21.9994" gradientUnits="userSpaceOnUse">
<stop stop-color="#A9794B"/>
<stop offset="0.3857" stop-color="#AE7F53"/>
<stop offset="0.4557" stop-color="#AC7D50"/>
<stop offset="0.6236" stop-color="#A9794B"/>
<stop offset="1" stop-color="#B2875D"/>
</linearGradient>
<clipPath id="clip0_268230_159">
<rect width="89" height="67.0977" fill="white"/>
</clipPath>
</defs>
</svg>
