<svg width="89" height="89" viewBox="0 0 89 89" fill="none" xmlns="http://www.w3.org/2000/svg">
<path d="M44.9758 52.0102C43.638 52.6248 42.1723 53.4258 39.2381 55.0362C38.1256 55.662 36.963 56.2877 35.8811 56.8774C35.806 56.8023 35.7282 56.7077 35.6531 56.6298C29.8486 50.4277 19.113 46.0472 19.5691 37.7173C19.7388 34.683 20.7817 26.7175 40.1865 17.0443C56.1565 9.17337 68.864 11.3539 71.0584 16.1905C74.2123 23.0852 64.2471 35.9151 47.7543 37.7757C45.9289 38.146 44.0437 38.1013 42.238 37.6449C40.4322 37.1885 38.7521 36.3322 37.3218 35.1391C36.4485 34.1907 36.3178 34.1351 35.9952 34.3242C35.464 34.6023 35.806 35.4617 35.9952 35.954C36.6243 37.0931 37.4754 38.0944 38.4982 38.8989C39.5209 39.7034 40.6946 40.2946 41.9498 40.6377C48.4402 42.0405 55.2072 41.3702 61.2962 38.7214C71.292 34.8527 79.0962 24.0976 76.81 15.0807C74.5155 5.93878 59.341 2.9239 44.9842 8.02471C35.9932 11.0546 27.6863 15.8242 20.537 22.0617C12.6271 29.4598 11.3755 35.8901 11.8873 38.5823C13.7285 48.1415 26.906 54.3631 32.1904 58.9716C31.9123 59.1246 31.6787 59.2498 31.4701 59.3694C28.8335 60.6793 18.782 65.9331 16.2761 71.4901C13.4309 77.7868 16.7322 82.3008 18.9127 82.9071C22.1987 83.6942 25.6485 83.4355 28.7804 82.167C31.9122 80.8985 34.5697 78.6836 36.3818 75.8316C37.9206 73.4666 38.8655 70.765 39.1362 67.9565C39.4068 65.148 38.9953 62.3157 37.9365 59.7003C38.5612 59.2021 39.2274 58.7582 39.9279 58.3737C41.274 57.5782 42.5561 56.7939 43.6937 56.1876C47.5885 54.3633 51.8389 53.4239 56.1398 53.437C65.1677 54.4994 66.9505 60.1314 66.6084 62.5038C66.4483 63.3456 66.1099 64.1432 65.6157 64.8432C65.1216 65.5431 64.4833 66.1291 63.7437 66.5617C63.1179 66.9594 62.9093 67.0929 62.9649 67.3766C63.04 67.7938 63.3432 67.7743 63.8744 67.6992C65.2308 67.2705 66.4258 66.4416 67.3024 65.3212C68.179 64.2009 68.6962 62.8416 68.7861 61.4219C69.0642 55.8594 63.7604 49.7574 54.3709 49.813C51.5594 49.8178 48.776 50.3724 46.1773 51.4456C45.7601 51.618 45.355 51.8034 44.9619 52.0018L44.9758 52.0102ZM31.5563 73.8124C28.5581 77.0748 24.3862 78.3069 22.584 77.2639C20.6371 76.1514 21.4075 71.326 25.0871 67.8744C27.2664 65.9109 29.6219 64.1522 32.1237 62.6206C32.5603 62.3425 33.2056 61.9754 33.9815 61.5082L34.1901 61.3941L34.6463 61.116C35.3025 63.3163 35.3622 65.6514 34.8193 67.8823C34.2763 70.1132 33.1502 72.1598 31.5563 73.8124V73.8124Z" fill="#CD6799"/>
</svg>
