<svg width="89" height="89" viewBox="0 0 89 89" fill="none" xmlns="http://www.w3.org/2000/svg">
<path d="M80.6841 13.9906L64.6474 6.26986C63.7418 5.8332 62.7227 5.6891 61.7315 5.85754C60.7403 6.02598 59.8261 6.49862 59.1155 7.20993L6.61941 55.0697C5.98248 55.6476 5.60121 56.4549 5.55949 57.314C5.51776 58.173 5.81899 59.0134 6.39691 59.6504C6.46644 59.7255 6.53597 59.7978 6.61107 59.8646L10.897 63.7583C11.457 64.268 12.1779 64.5655 12.9344 64.599C13.6909 64.6325 14.4353 64.4 15.0383 63.9419L78.27 15.9931C78.7476 15.6307 79.3169 15.4088 79.9138 15.3524C80.5106 15.2959 81.1114 15.4072 81.6485 15.6737C82.1855 15.9403 82.6375 16.3514 82.9536 16.8608C83.2697 17.3703 83.4373 17.9579 83.4375 18.5574V18.3711C83.4375 17.4558 83.179 16.5591 82.6919 15.7841C82.2048 15.0092 81.5089 14.3875 80.6841 13.9906V13.9906Z" fill="#0065A9"/>
<path d="M80.6841 75.0096L64.6474 82.7331C63.7415 83.1685 62.7227 83.3119 61.7318 83.1435C60.7409 82.9752 59.8267 82.5033 59.1155 81.793L6.61941 33.9305C5.98248 33.3525 5.60121 32.5453 5.55949 31.6862C5.51776 30.8272 5.81899 29.9867 6.39691 29.3498C6.46644 29.2747 6.53597 29.2024 6.61107 29.1356L10.897 25.2419C11.4576 24.73 12.1801 24.4312 12.9385 24.3977C13.6969 24.3642 14.443 24.598 15.0466 25.0583L78.27 73.0071C78.7476 73.3695 79.3169 73.5914 79.9138 73.6478C80.5106 73.7042 81.1114 73.5929 81.6485 73.3264C82.1855 73.0599 82.6375 72.6488 82.9536 72.1393C83.2697 71.6299 83.4373 71.0423 83.4375 70.4427V70.643C83.4345 71.5559 83.1747 72.4495 82.6878 73.2216C82.2009 73.9938 81.5065 74.6134 80.6841 75.0096V75.0096Z" fill="#007ACC"/>
<path d="M64.6475 82.7335C63.7416 83.169 62.7229 83.3124 61.7319 83.144C60.741 82.9756 59.8268 82.5037 59.1156 81.7935C59.515 82.1877 60.0219 82.4552 60.5727 82.5626C61.1235 82.67 61.6937 82.6124 62.2119 82.3971C62.7301 82.1818 63.1733 81.8183 63.4858 81.3522C63.7984 80.8862 63.9664 80.3382 63.9689 79.7771V9.22231C63.9694 8.65852 63.8025 8.10728 63.4894 7.63841C63.1763 7.16954 62.7311 6.80414 62.2102 6.58851C61.6893 6.37287 61.1161 6.31669 60.5632 6.4271C60.0103 6.5375 59.5026 6.80952 59.1045 7.20869C59.8152 6.49764 60.7292 6.02497 61.7203 5.85607C62.7113 5.68716 63.7303 5.83035 64.6364 6.26585L80.6703 13.9755C81.4977 14.3704 82.1965 14.9912 82.6862 15.7663C83.1758 16.5414 83.4363 17.4391 83.4376 18.3559V70.6434C83.4379 71.5595 83.1793 72.457 82.6916 73.2325C82.204 74.008 81.5072 74.63 80.6814 75.0267L64.6475 82.7335Z" fill="#1F9CF0"/>
</svg>
