<svg width="89" height="77" viewBox="0 0 89 77" fill="none" xmlns="http://www.w3.org/2000/svg">
<g clip-path="url(#clip0_268230_159)">
<path d="M48.8511 76.3353L73.2764 58.6102C73.3668 58.5463 73.485 58.5743 73.5406 58.678C73.5962 58.7817 73.5719 58.9174 73.4815 58.9812L48.9762 76.7622C48.9449 76.7862 48.9102 76.7981 48.8754 76.7981L48.8511 76.3353V76.3353Z" fill="url(#paint0_linear_268230_159)"/>
<path d="M48.8752 76.7976C48.8544 76.7976 48.8301 76.7936 48.8092 76.7857L15.5082 62.5431C15.4845 62.5332 15.4627 62.518 15.4442 62.4983C15.4257 62.4786 15.4108 62.4548 15.4005 62.4284C15.3901 62.402 15.3844 62.3735 15.3838 62.3445C15.3832 62.3155 15.3877 62.2867 15.397 62.2598C15.4352 62.1441 15.543 62.0882 15.6438 62.1321L48.8579 76.3348L48.8752 76.7976V76.7976Z" fill="url(#paint1_linear_268230_159)"/>
<path d="M83.8202 8.70139L79.9754 16.006L64.5298 23.5424L63.671 23.9613L49.7895 38.8579C49.5218 39.1651 49.341 39.6039 49.3097 39.8473C49.2958 39.9311 49.2332 39.8952 49.1741 39.8912C49.1115 39.8872 49.0246 39.9151 49.0177 39.8273C49.0107 39.5082 48.9794 39.1531 48.531 38.8339L41.5747 33.6633L36.5024 29.8892L22.2148 25.6845L10.2554 22.1656L2.68066 8.66149L2.79539 8.50988L2.80234 8.49791L31.2396 0.0159461C31.2813 -1.24875e-05 31.2883 0.00796679 31.3056 0.0358942L41.0046 16.7082L41.1958 17.0353C41.4044 17.3864 41.4252 17.6019 41.4252 17.7575H41.6025V17.7216C41.6025 17.7056 41.6025 17.6856 41.606 17.6657C41.606 17.6537 41.6095 17.6418 41.6095 17.6258C41.6129 17.6098 41.613 17.5939 41.6164 17.5779C41.6199 17.562 41.6199 17.546 41.6234 17.5261C41.6338 17.4702 41.6477 17.4064 41.6616 17.3425C41.6651 17.3226 41.6721 17.3026 41.6755 17.2867C41.6929 17.2229 41.7103 17.155 41.7312 17.0912C41.7416 17.0673 41.7485 17.0393 41.759 17.0154C41.7868 16.9356 41.8146 16.8638 41.8459 16.8C41.8737 16.7361 41.9015 16.6843 41.9293 16.6404L50.6729 2.04667C50.6937 2.01076 50.7042 1.99481 50.7494 2.00279L83.7649 8.52185L83.8205 8.70139H83.8202Z" fill="#E8B67F"/>
<path d="M41.5743 33.6602H41.5708L36.5023 29.8904L22.2144 25.6853L41.4248 17.7583L41.4769 17.6426V17.7583L41.5743 33.6602Z" fill="url(#paint2_linear_268230_159)"/>
<path d="M41.4252 17.7576L22.2148 25.6807L20.4834 25.17L10.2554 22.1578L2.68066 8.65368L2.80234 8.4901L31.2396 0.00813356C31.2813 -0.00782499 31.2883 0.000154288 31.3056 0.0280817L41.0045 16.7004L41.1958 17.0275C41.4044 17.3866 41.4252 17.602 41.4252 17.7576V17.7576Z" fill="url(#paint3_linear_268230_159)"/>
<path d="M41.4929 18.5987L23.3285 26.0909L20.4951 25.257L41.0166 16.791L41.2078 17.1182C41.4164 17.4693 41.4372 17.6847 41.4372 17.8403H41.4894L41.4929 18.5983V18.5987Z" fill="url(#paint4_linear_268230_159)"/>
<path d="M10.5164 22.2374L10.2592 22.1616L2.68408 8.65747L2.79881 8.50586L10.5164 22.2374Z" fill="#D2A679"/>
<path d="M64.5294 23.5428L63.6707 23.9617L49.7891 38.8586C49.5214 39.1658 49.3406 39.6047 49.3093 39.848C49.2954 39.9318 49.2329 39.8959 49.1738 39.8919C49.1112 39.8879 49.0243 39.9158 49.0173 39.8281C49.0104 39.5089 48.9791 39.1538 48.5306 38.8347L41.5743 33.6601L41.4805 17.7622V17.6465L41.6091 17.7622L64.5294 23.5432V23.5428Z" fill="url(#paint5_linear_268230_159)"/>
<path d="M83.8197 8.7007L79.975 16.0053L65.9165 22.8635L64.5328 23.5378L41.6056 17.7568C41.5917 17.5533 41.7134 17.0905 41.8455 16.7953C41.8733 16.7314 41.9011 16.6796 41.9289 16.6357L50.6725 2.04199C50.6933 2.00609 50.7037 1.99013 50.7489 1.99811L83.7645 8.51717L83.8201 8.7007H83.8197Z" fill="url(#paint6_linear_268230_159)"/>
<path d="M65.9166 22.8632L63.6742 23.9564L63.3857 24.2756L41.4771 18.718L41.5779 17.7525H41.6057C41.5918 17.549 41.7135 17.0862 41.8456 16.791L65.9166 22.8632V22.8632Z" fill="url(#paint7_linear_268230_159)"/>
<path opacity="0.75" d="M42.0854 17.8775V34.0387L41.5744 33.6597H41.5709L40.8999 33.157V17.9733L41.4249 17.7578H41.6022L42.0854 17.8775Z" fill="url(#paint8_linear_268230_159)"/>
<path d="M48.7397 76.5384L15.4109 62.2678C15.2232 62.1761 15.1954 61.9726 15.1849 61.7213C15.1849 61.7213 13.7526 29.1275 13.7491 29.1235C13.7456 29.0398 13.836 28.9879 13.8291 28.936C13.8047 28.8123 13.5996 28.3456 13.5336 28.2977L0 19.4726L0.114727 19.1734L36.5025 29.8895L48.5276 38.8299C48.9761 39.1491 49.0108 39.5042 49.0143 39.8233C49.0178 39.9111 49.1082 39.8832 49.1708 39.8872C49.2333 39.8912 49.2924 39.9271 49.3063 39.8433C49.3376 39.5999 49.5184 39.1611 49.7861 38.8579L63.6673 23.9609L88.8401 11.6816L88.993 11.925L75.4039 25.629C75.1396 25.9322 75.018 26.3033 75.0701 26.4549L73.6795 58.3987C73.6586 58.6022 73.5752 58.662 73.3979 58.8017L49.0352 76.4989C48.9378 76.5707 48.8335 76.5906 48.7397 76.5388V76.5384Z" fill="#BF9064"/>
<path d="M49.1704 39.8863L48.9305 76.5534C48.866 76.5742 48.7971 76.5686 48.7358 76.5375L15.4074 62.2709C15.2197 62.1792 15.1919 61.9717 15.1814 61.7244L13.7456 29.1266V29.1187C13.7456 29.1107 13.7456 29.1027 13.7491 29.0947C13.7491 29.0867 13.7526 29.0827 13.756 29.0788C13.7595 29.0708 13.763 29.0668 13.7665 29.0588C13.7699 29.0508 13.7734 29.0468 13.7769 29.0389C13.7908 29.0149 13.8117 28.991 13.8186 28.971C13.8221 28.967 13.8221 28.9631 13.8221 28.9591V28.9551L49.0178 39.8384C49.0317 39.9102 49.1151 39.8823 49.1707 39.8863H49.1704Z" fill="#BD8F63"/>
<path opacity="0.54" d="M48.9342 76.4476V76.5513C48.8697 76.5721 48.8008 76.5665 48.7395 76.5353L15.4107 62.2688C15.2786 62.205 15.2265 62.0813 15.2021 61.9297L48.9342 76.4476V76.4476Z" fill="url(#paint9_linear_268230_159)"/>
<path d="M33.8638 54.2051L46.7684 59.0485L46.7371 73.4902L34.0724 68.152L33.8638 54.2051ZM40.3302 63.9079L40.3615 70.5981L46.6116 73.2329V66.413L40.3298 63.9075L40.3302 63.9079ZM42.1766 66.0691L43.4396 68.3759L44.6769 67.1319L44.8925 67.414L43.6155 68.6974L44.8952 71.0346L44.71 71.1682L43.4487 68.865L42.2176 70.1034L42.0021 69.8213L43.2727 68.5434L41.9913 66.2027L42.1766 66.0691V66.0691ZM45.8958 68.6671V69.3254L46.2261 69.4491V70.1912L45.8958 70.0395V70.638L45.1727 69.3773L45.8958 68.6671V68.6671ZM44.7833 67.8652L45.0371 67.957V70.5861L44.7833 70.4824V67.8652ZM34.1176 61.4299L34.2114 68.0168L40.1842 70.5223L40.1494 63.8476L34.1176 61.4299ZM43.4556 69.2815L44.1092 70.4904L42.8055 69.9478L43.4556 69.2815ZM44.4635 68.1724V69.8879L43.7855 68.7908L44.4635 68.1724ZM41.8769 66.6444L42.1272 66.7401V69.3653L41.8769 69.2656V66.6444V66.6444ZM42.4401 67.3505L43.0867 68.4956L42.4401 69.0661V67.3505ZM37.0375 64.1708L37.2844 64.2626L37.2851 64.4309C38.02 64.77 38.7459 65.6158 39.096 66.9316C38.8665 66.4888 38.6649 66.405 38.3068 66.5446C38.1747 66.2294 37.7853 66.0619 37.5524 66.2294C37.4934 66.1 37.4034 65.9926 37.2931 65.9198L37.3056 68.4237C37.3056 68.6551 37.1665 68.8626 36.8223 68.7828C36.5094 68.695 36.3808 68.4198 36.4156 67.949L36.5894 67.9809C36.5894 68.2961 36.6103 68.4756 36.8188 68.5315C36.9962 68.5793 37.0761 68.5035 37.0761 68.316L37.0532 65.8325C36.9544 65.8245 36.863 65.8524 36.798 65.9183C36.718 65.6869 36.3391 65.3757 36.054 65.6071C35.8524 65.24 35.4734 65.1004 35.2613 65.3677C35.5322 64.4281 36.2675 64.099 37.0389 64.3364L37.0379 64.1708H37.0375ZM40.9939 66.6164L41.6996 67.8931L41.0008 68.5594L41.0147 67.933L40.674 67.8413V67.1151L40.9939 67.2508V66.6164ZM42.7843 66.8917L44.1054 67.4423L43.4448 68.1086L42.7843 66.8917V66.8917ZM40.3194 56.8378L40.3333 63.6601L46.6155 66.1736V59.2037L40.3194 56.8378V56.8378ZM41.491 62.7305L45.2457 64.2027V65.0605L41.491 63.5763V62.7305V62.7305ZM38.2446 64.3539L38.2581 64.3583C38.2825 64.3862 38.2825 64.6855 38.2025 64.7533C38.1789 64.7655 38.1528 64.7701 38.1271 64.7666C38.1014 64.7631 38.077 64.7516 38.0565 64.7333C38.0078 64.6894 37.98 64.6256 38.0009 64.5299C38.0217 64.4341 38.2303 64.3304 38.2581 64.3583L38.2446 64.3539ZM38.5922 63.6717L38.6058 63.6761C38.6336 63.704 38.6336 64.0032 38.5502 64.071C38.5266 64.0833 38.5005 64.0879 38.4748 64.0843C38.449 64.0808 38.4246 64.0693 38.4042 64.0511C38.3555 64.0072 38.3277 63.9434 38.3485 63.8476C38.3694 63.7519 38.578 63.6481 38.6058 63.6761L38.5922 63.6717ZM37.6188 63.6438L37.6324 63.6481C37.6602 63.6761 37.6602 63.9753 37.5767 64.0431C37.5531 64.0553 37.527 64.0599 37.5013 64.0564C37.4756 64.0529 37.4512 64.0414 37.4307 64.0232C37.3821 63.9793 37.3542 63.9155 37.3751 63.8197C37.396 63.724 37.6046 63.6202 37.6324 63.6481L37.6188 63.6438ZM36.6349 63.4802L36.6485 63.4846C36.6763 63.5125 36.6763 63.8117 36.5929 63.8795C36.5693 63.8918 36.5432 63.8964 36.5174 63.8928C36.4917 63.8893 36.4673 63.8778 36.4469 63.8596C36.3982 63.8157 36.3704 63.7519 36.3912 63.6561C36.4121 63.5604 36.6207 63.4566 36.6485 63.4846L36.6349 63.4802ZM44.3905 59.0006L45.3013 61.0633L44.679 60.8199V63.8081L44.0567 63.5608L44.0602 60.5965L43.4414 60.3651L44.3905 59.0006V59.0006ZM33.9994 54.4604L34.1071 61.1909L40.1529 63.5767L40.1007 56.7584L33.9994 54.4604ZM42.3362 58.2147L43.247 60.2773L42.6247 60.0339V63.0222L42.0024 62.7748L42.0094 59.8105L41.3871 59.5791L42.3362 58.2147V58.2147ZM35.3517 55.8129L35.8454 56.0004L36.0749 56.9539L35.8176 56.934L36.5512 58.9687L36.1722 57.2931L36.3878 57.2891L36.1687 56.1201L38.7171 57.0856V58.6934C38.7171 59.3038 38.1399 60.0738 37.3264 59.6908L37.3299 61.3066L38.498 62.1684L35.6716 61.0433L36.8084 61.1071L36.7876 59.5073C35.981 59.232 35.3969 58.1189 35.3969 57.4407L35.3517 55.8129V55.8129Z" fill="#322214"/>
<path d="M49.1704 39.8868C49.0314 39.8908 48.9271 40.1023 48.9236 40.2938L48.8923 40.3097L13.7456 29.1228C13.7422 29.047 13.8186 28.9991 13.8256 28.9512C13.8291 28.9472 13.8291 28.9433 13.8256 28.9393C13.8013 28.8156 13.5961 28.3488 13.5301 28.3009L0 19.4731L0.114727 19.1738L36.499 29.8856H36.5025L48.5276 38.826C48.9761 39.1491 49.0108 39.5002 49.0143 39.8194C49.0143 39.8234 49.0143 39.8314 49.0178 39.8354C49.0317 39.9112 49.1151 39.8832 49.1708 39.8872L49.1704 39.8868Z" fill="url(#paint10_linear_268230_159)"/>
<path d="M75.4074 25.6247C75.1432 25.9279 75.0215 26.299 75.0737 26.4506L49.4764 40.3501L49.4243 40.3022C49.4208 40.0708 49.2922 39.9152 49.1948 39.8913C49.247 39.8992 49.2956 39.9192 49.3096 39.8434C49.3165 39.7955 49.3269 39.7396 49.3443 39.6798C49.3582 39.6279 49.3791 39.5721 49.4034 39.5122C49.4764 39.3207 49.5877 39.1133 49.7302 38.9298C49.7511 38.9058 49.7719 38.8779 49.7928 38.8539L63.6744 23.957L88.8471 11.6777L89.0001 11.9211L75.4074 25.6251V25.6247Z" fill="#CD9C6B"/>
<path d="M33.3738 43.5418C33.412 43.5538 33.4259 43.5578 33.4259 43.5219L33.2938 35.4074C33.2834 35.1321 33.2243 34.5895 32.9357 34.3701L20.1183 25.4337L14.1108 23.6543L27.1372 32.5871C27.464 32.8345 27.4918 33.2973 27.5057 33.6404L27.6934 41.5311C27.6934 41.571 27.7004 41.5789 27.7247 41.5909L33.3741 43.5418H33.3738Z" fill="url(#paint11_linear_268230_159)"/>
<path d="M49.1704 39.8868C49.0279 39.8908 48.9236 40.1142 48.9236 40.3097C48.9201 40.3256 48.8958 40.3217 48.8923 40.3097C48.8645 39.8748 48.7081 39.3881 48.5029 39.2165L36.3809 30.2478L36.4991 29.8848H36.5025L48.5276 38.8255C48.9761 39.1487 49.0109 39.4998 49.0143 39.819C49.0143 39.823 49.0143 39.8309 49.0178 39.8349C49.0317 39.9107 49.1152 39.8828 49.1708 39.8868H49.1704Z" fill="#D4A271"/>
<path d="M36.499 29.8895L36.3808 30.2486L0 19.473L0.114727 19.1777L36.499 29.8895Z" fill="#DEB37E"/>
<path d="M75.0773 26.4504L73.6866 58.3942C73.6658 58.5977 73.5824 58.6575 73.405 58.7972L49.0423 76.4944C49.0076 76.5223 48.9693 76.5383 48.9346 76.5502L49.1745 39.8831C49.237 39.8871 49.2961 39.923 49.31 39.8392C49.31 39.8272 49.3135 39.8192 49.3135 39.8073L75.0703 26.4141C75.0703 26.434 75.0738 26.442 75.0773 26.45V26.4504Z" fill="#DBAD77"/>
<path opacity="0.54" d="M73.6866 58.3828V58.3988C73.6658 58.6022 73.5824 58.6621 73.405 58.8017L49.0423 76.499C49.0076 76.5269 48.9693 76.5428 48.9346 76.5548V76.4511L73.6866 58.3828V58.3828Z" fill="url(#paint12_linear_268230_159)"/>
<path d="M73.2309 44.4824L72.6746 57.4882L64.5742 63.2772L64.9914 49.7404L73.2309 44.4824V44.4824ZM68.8991 53.898L64.8732 56.6145L64.682 63.0179L68.6905 60.1573L68.8991 53.8976V53.898ZM66.9765 56.6464L66.9696 56.8619C67.4504 56.5866 67.9048 56.7781 68.096 57.6917C67.9639 57.4803 67.724 57.564 67.5641 57.9949C67.4911 57.8154 67.1191 57.963 67.0634 58.338C67.0339 58.277 66.9807 58.2546 66.9195 58.2626L66.8309 60.7318C66.8239 60.9433 66.8135 61.1707 66.5805 61.3342C66.4728 61.3901 66.1877 61.434 66.2259 60.9752L66.3615 60.8555C66.3511 61.1467 66.4171 61.2345 66.5562 61.1388C66.7231 61.0231 66.6918 60.8395 66.6987 60.668L66.7735 58.3285C66.7197 58.369 66.6734 58.4215 66.6373 58.4827C66.6012 58.5439 66.576 58.6127 66.5632 58.6851C66.5214 58.5415 66.1182 58.6293 66.0695 59.0402C65.9548 58.8647 65.6419 59.0362 65.5237 59.4791C65.7413 58.3289 66.2809 57.3741 66.818 56.9632L66.8239 56.7741L66.9769 56.6464H66.9765ZM72.8519 51.2165L69.0138 53.8218L68.8017 60.0975L72.5981 57.3566L72.8519 51.2165V51.2165ZM71.6664 53.331L71.7777 53.4507L70.9412 55.6283L71.6316 56.7222L71.5204 56.9935L70.832 55.9123L70.0046 58.0667L69.8899 57.947L70.7326 55.7563L70.0185 54.6357L70.1437 54.3644L70.8425 55.4715L71.6664 53.331ZM69.3302 55.8325L69.7647 56.439L69.3023 57.58V57.0773L69.1077 57.213L69.1181 56.5626L69.3128 56.431L69.3302 55.8325V55.8325ZM70.0811 55.0426L69.9907 57.4483L69.8343 57.568L69.9212 55.1703L70.0811 55.0426V55.0426ZM70.8146 56.2993L71.1866 56.8619L70.387 57.4204L70.8146 56.2993V56.2993ZM66.5559 56.4749C66.5732 56.4749 66.5628 56.7502 66.5037 56.8858C66.4829 56.9337 66.4446 56.9855 66.4133 56.9895C66.382 56.9935 66.3681 56.9536 66.3855 56.8499C66.4029 56.7462 66.5385 56.4749 66.5559 56.4749ZM70.2549 55.3697L70.6234 55.8924L70.1923 56.8698L70.2549 55.3697ZM67.6127 55.9762C67.6266 55.9802 67.6162 56.2554 67.5606 56.3871C67.5397 56.435 67.5015 56.4868 67.4702 56.4908C67.4389 56.4948 67.425 56.4549 67.4424 56.3512C67.4598 56.2475 67.5953 55.9762 67.6127 55.9762ZM69.1563 47.2628L65.0887 49.88L64.8767 56.411L68.913 53.6821L69.1563 47.2628V47.2628ZM71.8368 53.8178L71.7394 56.2195L71.6003 56.3233L71.6942 53.9255L71.8368 53.8178ZM67.2303 55.7966C67.2477 55.7966 67.2373 56.0719 67.1782 56.2076C67.1573 56.2554 67.1191 56.3073 67.0878 56.3113C67.0565 56.3153 67.0426 56.2754 67.06 56.1717C67.0773 56.0679 67.2129 55.7966 67.2303 55.7966ZM71.4787 54.516L71.423 56.048L71.0615 55.5533L71.4787 54.516ZM72.3409 53.7859L72.32 54.3763L72.5216 54.2487L72.4973 54.903L72.3026 55.0346L72.2957 55.5732L71.875 54.9947L72.3409 53.7859ZM67.8804 55.0067C67.8978 55.0067 67.8874 55.282 67.8283 55.4176C67.8074 55.4655 67.7692 55.5174 67.7379 55.5213C67.7066 55.5253 67.6927 55.4854 67.7101 55.3817C67.7275 55.278 67.863 55.0067 67.8804 55.0067ZM71.2805 54.0811L70.8494 55.2141L70.4774 54.6357L71.2805 54.0811V54.0811ZM68.2107 48.6512L68.1586 50.2949C68.1377 50.8535 67.7483 51.8668 67.1677 52.2897L67.1052 53.8417L67.8804 53.6502L65.9927 54.903L66.7784 54.0452L66.8201 52.5211C66.316 52.8523 65.9127 52.2379 65.937 51.6155L65.9822 50.1074L66.3229 49.896L66.4342 50.6221L66.2499 50.7936L66.6567 52.1461L66.5002 50.9133L66.6393 50.7298L66.5315 49.7603L68.2107 48.6512V48.6512ZM73.1474 44.7178L69.2537 47.2153L69.0103 53.6347L72.8693 50.9855L73.1474 44.7178V44.7178ZM72.1323 50.2514L72.0836 51.0135L69.803 52.5614L69.8343 51.7914L72.1323 50.2514V50.2514ZM70.5191 46.96L71.0232 48.1808L70.6443 48.4242L70.5296 51.1651L70.168 51.4044L70.2375 48.6636L69.8725 48.9149L70.5191 46.96V46.96ZM71.7846 46.1541L72.2748 47.355L71.8715 47.6143L71.7881 50.3352L71.4022 50.5826L71.5239 47.8417L71.1449 48.0891L71.7846 46.1541V46.1541Z" fill="#322214"/>
<path d="M63.8761 24.2721L50.1127 38.9536C49.7233 39.3805 49.4661 40.0188 49.4765 40.35C49.4695 40.3659 49.4348 40.3779 49.4209 40.35C49.4382 40.0946 49.2957 39.9191 49.1914 39.8912C49.2436 39.8991 49.2922 39.9191 49.3061 39.8433C49.3131 39.7954 49.3235 39.7396 49.3409 39.6797C49.3548 39.6278 49.3757 39.572 49.4 39.5121C49.4834 39.2967 49.619 39.0493 49.7859 38.8578L63.6675 23.9609L63.8761 24.2721V24.2721Z" fill="#D7AA77"/>
<path d="M60.8407 42.0819C60.8407 42.1257 60.8581 42.1457 60.8824 42.1337L65.016 39.7C65.023 39.6961 65.0265 39.6881 65.0299 39.6721L65.2594 31.8967C65.2663 31.4698 65.4749 31.0469 65.76 30.7557L79.4879 16.5977L75.3091 18.6523L61.5113 32.9983C61.1567 33.3972 61.035 33.868 61.0281 34.267L60.8403 42.0827L60.8407 42.0819Z" fill="url(#paint13_linear_268230_159)"/>
<path d="M63.876 24.2725L88.9966 11.921L88.8436 11.6816L63.6709 23.9574L63.876 24.2725Z" fill="#F8CE93"/>
</g>
<defs>
<linearGradient id="paint0_linear_268230_159" x1="61.0586" y1="67.5966" x2="61.2148" y2="67.8115" gradientUnits="userSpaceOnUse">
<stop/>
<stop offset="1" stop-opacity="0"/>
</linearGradient>
<linearGradient id="paint1_linear_268230_159" x1="32.1788" y1="69.4479" x2="32.1575" y2="69.4979" gradientUnits="userSpaceOnUse">
<stop/>
<stop offset="1" stop-opacity="0"/>
</linearGradient>
<linearGradient id="paint2_linear_268230_159" x1="37.9933" y1="25.0983" x2="40.275" y2="25.9224" gradientUnits="userSpaceOnUse">
<stop stop-color="#C37A44"/>
<stop offset="0.4442" stop-color="#BB713D"/>
<stop offset="0.6406" stop-color="#A05728"/>
<stop offset="1" stop-color="#964E23"/>
</linearGradient>
<linearGradient id="paint3_linear_268230_159" x1="27.2738" y1="15.7474" x2="21.5919" y2="8.79787" gradientUnits="userSpaceOnUse">
<stop stop-color="#E9B880"/>
<stop offset="1" stop-color="#E4AF76"/>
</linearGradient>
<linearGradient id="paint4_linear_268230_159" x1="31.1817" y1="21.5448" x2="31.067" y2="21.2695" gradientUnits="userSpaceOnUse">
<stop stop-color="#C37A45" stop-opacity="0"/>
<stop offset="0.1334" stop-color="#C37A45"/>
<stop offset="0.2945" stop-color="#D08D55"/>
<stop offset="0.5021" stop-color="#DEA167"/>
<stop offset="0.6966" stop-color="#E8AF73"/>
<stop offset="0.8631" stop-color="#ECB477"/>
<stop offset="1" stop-color="#ECB477" stop-opacity="0"/>
</linearGradient>
<linearGradient id="paint5_linear_268230_159" x1="52.411" y1="24.0868" x2="46.9369" y2="35.05" gradientUnits="userSpaceOnUse">
<stop offset="0.0881" stop-color="#AF6938"/>
<stop offset="0.4829" stop-color="#9A5227"/>
<stop offset="0.7792" stop-color="#8D4520"/>
</linearGradient>
<linearGradient id="paint6_linear_268230_159" x1="58.9749" y1="14.3369" x2="62.0659" y2="9.49391" gradientUnits="userSpaceOnUse">
<stop offset="0.0327" stop-color="#E4AF76"/>
<stop offset="1" stop-color="#E9B880"/>
</linearGradient>
<linearGradient id="paint7_linear_268230_159" x1="53.6049" y1="20.5685" x2="53.6437" y2="20.4186" gradientUnits="userSpaceOnUse">
<stop stop-color="#AF6A38" stop-opacity="0"/>
<stop offset="0.086" stop-color="#AF6A38"/>
<stop offset="0.1977" stop-color="#B87542"/>
<stop offset="0.5828" stop-color="#D59C66"/>
<stop offset="0.7771" stop-color="#E4AF76"/>
<stop offset="0.9239" stop-color="#E4AF76" stop-opacity="0"/>
</linearGradient>
<linearGradient id="paint8_linear_268230_159" x1="40.9972" y1="25.8992" x2="42.0053" y2="25.8992" gradientUnits="userSpaceOnUse">
<stop stop-color="#743F1A" stop-opacity="0"/>
<stop offset="0.4929" stop-color="#743F1A" stop-opacity="0.887"/>
<stop offset="0.5" stop-color="#743F1A" stop-opacity="0.9"/>
<stop offset="0.5297" stop-color="#743F1A" stop-opacity="0.847"/>
<stop offset="1" stop-color="#743F1A" stop-opacity="0"/>
</linearGradient>
<linearGradient id="paint9_linear_268230_159" x1="32.0348" y1="69.26" x2="32.0451" y2="69.2361" gradientUnits="userSpaceOnUse">
<stop stop-color="#322214"/>
<stop offset="0.2397" stop-color="#322314" stop-opacity="0.989"/>
<stop offset="1" stop-color="#322214" stop-opacity="0"/>
</linearGradient>
<linearGradient id="paint10_linear_268230_159" x1="25.2639" y1="29.3689" x2="24.9087" y2="30.4019" gradientUnits="userSpaceOnUse">
<stop offset="0.0476" stop-color="#C69866"/>
<stop offset="0.4156" stop-color="#BA8C5E"/>
<stop offset="0.8135" stop-color="#B5875B"/>
</linearGradient>
<linearGradient id="paint11_linear_268230_159" x1="26.2869" y1="32.9744" x2="18.7195" y2="25.6507" gradientUnits="userSpaceOnUse">
<stop stop-color="#845F35"/>
<stop offset="0.4311" stop-color="#91673C"/>
<stop offset="0.4407" stop-color="#976A40"/>
<stop offset="0.8737" stop-color="#986B40"/>
<stop offset="1" stop-color="#AB8157"/>
</linearGradient>
<linearGradient id="paint12_linear_268230_159" x1="61.3104" y1="67.4695" x2="61.3292" y2="67.4954" gradientUnits="userSpaceOnUse">
<stop stop-color="#322214" stop-opacity="0"/>
<stop offset="1" stop-color="#322214"/>
</linearGradient>
<linearGradient id="paint13_linear_268230_159" x1="69.3541" y1="32.5913" x2="71.0012" y2="25.3329" gradientUnits="userSpaceOnUse">
<stop stop-color="#A9794B"/>
<stop offset="0.3857" stop-color="#AE7F53"/>
<stop offset="0.4557" stop-color="#AC7D50"/>
<stop offset="0.6236" stop-color="#A9794B"/>
<stop offset="1" stop-color="#B2875D"/>
</linearGradient>
<clipPath id="clip0_268230_159">
<rect width="89" height="77" fill="white"/>
</clipPath>
</defs>
</svg>
